<mxfile host="app.diagrams.net" agent="Mozilla/5.0 (Windows NT 10.0; Win64; x64) AppleWebKit/537.36 (KHTML, like Gecko) Chrome/136.0.0.0 Safari/537.36" version="27.0.6">
  <diagram name="Страница — 1" id="fiAnCzx1LTwYSZsdOXO3">
    <mxGraphModel dx="866" dy="521" grid="1" gridSize="10" guides="1" tooltips="1" connect="1" arrows="1" fold="1" page="1" pageScale="1" pageWidth="827" pageHeight="1169" math="0" shadow="0">
      <root>
        <mxCell id="0" />
        <mxCell id="1" parent="0" />
        <mxCell id="Yz4EhcSHYyITStYRoGpT-2" value="&lt;h1 style=&quot;margin-top: 0px;&quot;&gt;Job Board&lt;/h1&gt;&lt;p&gt;It&#39;s a web application for finding a job/employee .&lt;/p&gt;" style="text;html=1;whiteSpace=wrap;overflow=hidden;rounded=0;fillColor=#CDA2BE;align=left;fontColor=#FFFFFF;" parent="1" vertex="1">
          <mxGeometry width="170" height="100" as="geometry" />
        </mxCell>
        <mxCell id="JZi6fWA_zqeTddhJh_jY-1" value="User&lt;div&gt;&lt;br&gt;&lt;/div&gt;" style="shape=umlActor;verticalLabelPosition=bottom;verticalAlign=top;html=1;outlineConnect=0;fillColor=#dae8fc;strokeColor=#6c8ebf;" vertex="1" parent="1">
          <mxGeometry x="40" y="160" width="30" height="60" as="geometry" />
        </mxCell>
        <mxCell id="JZi6fWA_zqeTddhJh_jY-2" value="Company&lt;div&gt;&lt;br&gt;&lt;/div&gt;" style="shape=umlActor;verticalLabelPosition=bottom;verticalAlign=top;html=1;outlineConnect=0;fillColor=#d5e8d4;strokeColor=#82b366;" vertex="1" parent="1">
          <mxGeometry x="690" y="280" width="30" height="60" as="geometry" />
        </mxCell>
        <mxCell id="JZi6fWA_zqeTddhJh_jY-3" value="Log In" style="ellipse;whiteSpace=wrap;html=1;" vertex="1" parent="1">
          <mxGeometry x="312" y="230" width="60" height="30" as="geometry" />
        </mxCell>
        <mxCell id="JZi6fWA_zqeTddhJh_jY-5" value="Edit&lt;br&gt;&amp;nbsp;Profile" style="ellipse;whiteSpace=wrap;html=1;" vertex="1" parent="1">
          <mxGeometry x="302" y="350" width="70" height="40" as="geometry" />
        </mxCell>
        <mxCell id="JZi6fWA_zqeTddhJh_jY-6" value="Create Vacancy" style="ellipse;whiteSpace=wrap;html=1;" vertex="1" parent="1">
          <mxGeometry x="382" y="410" width="120" height="30" as="geometry" />
        </mxCell>
        <mxCell id="JZi6fWA_zqeTddhJh_jY-7" value="" style="endArrow=classic;html=1;rounded=0;exitX=1;exitY=0.3333333333333333;exitDx=0;exitDy=0;exitPerimeter=0;entryX=1;entryY=0.5;entryDx=0;entryDy=0;fillColor=#d5e8d4;strokeColor=#82b366;" edge="1" parent="1" source="JZi6fWA_zqeTddhJh_jY-2" target="JZi6fWA_zqeTddhJh_jY-3">
          <mxGeometry width="50" height="50" relative="1" as="geometry">
            <mxPoint x="330" y="390" as="sourcePoint" />
            <mxPoint x="380" y="340" as="targetPoint" />
          </mxGeometry>
        </mxCell>
        <mxCell id="JZi6fWA_zqeTddhJh_jY-8" value="" style="endArrow=classic;html=1;rounded=0;entryX=1;entryY=0.5;entryDx=0;entryDy=0;fillColor=#d5e8d4;strokeColor=#82b366;" edge="1" parent="1" source="JZi6fWA_zqeTddhJh_jY-2" target="JZi6fWA_zqeTddhJh_jY-5">
          <mxGeometry width="50" height="50" relative="1" as="geometry">
            <mxPoint x="180" y="545" as="sourcePoint" />
            <mxPoint x="270" y="420" as="targetPoint" />
          </mxGeometry>
        </mxCell>
        <mxCell id="JZi6fWA_zqeTddhJh_jY-10" value="" style="endArrow=classic;html=1;rounded=0;entryX=1;entryY=0.5;entryDx=0;entryDy=0;fillColor=#d5e8d4;strokeColor=#82b366;" edge="1" parent="1" source="JZi6fWA_zqeTddhJh_jY-2" target="JZi6fWA_zqeTddhJh_jY-6">
          <mxGeometry width="50" height="50" relative="1" as="geometry">
            <mxPoint x="190" y="490" as="sourcePoint" />
            <mxPoint x="290" y="460" as="targetPoint" />
          </mxGeometry>
        </mxCell>
        <mxCell id="JZi6fWA_zqeTddhJh_jY-11" value="" style="endArrow=classic;html=1;rounded=0;entryX=0;entryY=0;entryDx=0;entryDy=0;fillColor=#dae8fc;strokeColor=#6c8ebf;" edge="1" parent="1" source="JZi6fWA_zqeTddhJh_jY-1" target="JZi6fWA_zqeTddhJh_jY-3">
          <mxGeometry width="50" height="50" relative="1" as="geometry">
            <mxPoint x="170" y="495" as="sourcePoint" />
            <mxPoint x="270" y="370" as="targetPoint" />
          </mxGeometry>
        </mxCell>
        <mxCell id="JZi6fWA_zqeTddhJh_jY-12" value="" style="endArrow=classic;html=1;rounded=0;entryX=0;entryY=0;entryDx=0;entryDy=0;fillColor=#dae8fc;strokeColor=#6c8ebf;" edge="1" parent="1" source="JZi6fWA_zqeTddhJh_jY-1" target="JZi6fWA_zqeTddhJh_jY-5">
          <mxGeometry width="50" height="50" relative="1" as="geometry">
            <mxPoint x="170" y="310" as="sourcePoint" />
            <mxPoint x="288" y="349" as="targetPoint" />
          </mxGeometry>
        </mxCell>
        <mxCell id="JZi6fWA_zqeTddhJh_jY-14" value="Registration" style="ellipse;whiteSpace=wrap;html=1;" vertex="1" parent="1">
          <mxGeometry x="413" y="165" width="80" height="30" as="geometry" />
        </mxCell>
        <mxCell id="JZi6fWA_zqeTddhJh_jY-15" value="extends" style="endArrow=classic;html=1;rounded=0;dashed=1;" edge="1" parent="1" source="JZi6fWA_zqeTddhJh_jY-14" target="JZi6fWA_zqeTddhJh_jY-3">
          <mxGeometry width="50" height="50" relative="1" as="geometry">
            <mxPoint x="290" y="380" as="sourcePoint" />
            <mxPoint x="480" y="210" as="targetPoint" />
          </mxGeometry>
        </mxCell>
        <mxCell id="JZi6fWA_zqeTddhJh_jY-16" value="Create vacancy application" style="ellipse;whiteSpace=wrap;html=1;" vertex="1" parent="1">
          <mxGeometry x="230" y="160" width="110" height="45" as="geometry" />
        </mxCell>
        <mxCell id="JZi6fWA_zqeTddhJh_jY-17" value="" style="endArrow=classic;html=1;rounded=0;fillColor=#dae8fc;strokeColor=#6c8ebf;" edge="1" parent="1" source="JZi6fWA_zqeTddhJh_jY-1" target="JZi6fWA_zqeTddhJh_jY-16">
          <mxGeometry width="50" height="50" relative="1" as="geometry">
            <mxPoint x="170" y="250" as="sourcePoint" />
            <mxPoint x="258" y="262" as="targetPoint" />
          </mxGeometry>
        </mxCell>
        <mxCell id="JZi6fWA_zqeTddhJh_jY-18" value="View vacancy applications" style="ellipse;whiteSpace=wrap;html=1;" vertex="1" parent="1">
          <mxGeometry x="530" y="420" width="130" height="30" as="geometry" />
        </mxCell>
        <mxCell id="JZi6fWA_zqeTddhJh_jY-20" value="" style="endArrow=classic;html=1;rounded=0;fillColor=#d5e8d4;strokeColor=#82b366;" edge="1" parent="1" source="JZi6fWA_zqeTddhJh_jY-2" target="JZi6fWA_zqeTddhJh_jY-18">
          <mxGeometry width="50" height="50" relative="1" as="geometry">
            <mxPoint x="160" y="462" as="sourcePoint" />
            <mxPoint x="248" y="440" as="targetPoint" />
          </mxGeometry>
        </mxCell>
        <mxCell id="JZi6fWA_zqeTddhJh_jY-22" value="Edit Vacancy Info" style="ellipse;whiteSpace=wrap;html=1;" vertex="1" parent="1">
          <mxGeometry x="282" y="500" width="120" height="30" as="geometry" />
        </mxCell>
        <mxCell id="JZi6fWA_zqeTddhJh_jY-23" value="Remove Vacancy" style="ellipse;whiteSpace=wrap;html=1;" vertex="1" parent="1">
          <mxGeometry x="425" y="500" width="120" height="30" as="geometry" />
        </mxCell>
        <mxCell id="JZi6fWA_zqeTddhJh_jY-24" value="Include" style="endArrow=classic;html=1;rounded=0;dashed=1;exitX=0.5;exitY=1;exitDx=0;exitDy=0;entryX=0.5;entryY=0;entryDx=0;entryDy=0;" edge="1" parent="1" source="JZi6fWA_zqeTddhJh_jY-6" target="JZi6fWA_zqeTddhJh_jY-22">
          <mxGeometry width="50" height="50" relative="1" as="geometry">
            <mxPoint x="452" y="310" as="sourcePoint" />
            <mxPoint x="482" y="240" as="targetPoint" />
          </mxGeometry>
        </mxCell>
        <mxCell id="JZi6fWA_zqeTddhJh_jY-25" value="Include" style="endArrow=classic;html=1;rounded=0;dashed=1;exitX=0.5;exitY=1;exitDx=0;exitDy=0;entryX=0.5;entryY=0;entryDx=0;entryDy=0;" edge="1" parent="1" source="JZi6fWA_zqeTddhJh_jY-6" target="JZi6fWA_zqeTddhJh_jY-23">
          <mxGeometry width="50" height="50" relative="1" as="geometry">
            <mxPoint x="522" y="490" as="sourcePoint" />
            <mxPoint x="432" y="530" as="targetPoint" />
          </mxGeometry>
        </mxCell>
        <mxCell id="JZi6fWA_zqeTddhJh_jY-26" value="Search &lt;br&gt;Vacancies" style="ellipse;whiteSpace=wrap;html=1;" vertex="1" parent="1">
          <mxGeometry x="150" y="120" width="90" height="40" as="geometry" />
        </mxCell>
        <mxCell id="JZi6fWA_zqeTddhJh_jY-27" value="" style="endArrow=classic;html=1;rounded=0;fillColor=#dae8fc;strokeColor=#6c8ebf;" edge="1" parent="1" source="JZi6fWA_zqeTddhJh_jY-1" target="JZi6fWA_zqeTddhJh_jY-26">
          <mxGeometry width="50" height="50" relative="1" as="geometry">
            <mxPoint x="130" y="310" as="sourcePoint" />
            <mxPoint x="348" y="332" as="targetPoint" />
          </mxGeometry>
        </mxCell>
        <mxCell id="JZi6fWA_zqeTddhJh_jY-30" value="Admin" style="shape=umlActor;verticalLabelPosition=bottom;verticalAlign=top;html=1;outlineConnect=0;fillColor=#f8cecc;strokeColor=#b85450;" vertex="1" parent="1">
          <mxGeometry x="50" y="350" width="30" height="60" as="geometry" />
        </mxCell>
        <mxCell id="JZi6fWA_zqeTddhJh_jY-31" value="Log Out" style="ellipse;whiteSpace=wrap;html=1;" vertex="1" parent="1">
          <mxGeometry x="304.5" y="290" width="65" height="30" as="geometry" />
        </mxCell>
        <mxCell id="JZi6fWA_zqeTddhJh_jY-32" value="" style="endArrow=classic;html=1;rounded=0;fillColor=#d5e8d4;strokeColor=#82b366;" edge="1" parent="1" source="JZi6fWA_zqeTddhJh_jY-2" target="JZi6fWA_zqeTddhJh_jY-31">
          <mxGeometry width="50" height="50" relative="1" as="geometry">
            <mxPoint x="747" y="315" as="sourcePoint" />
            <mxPoint x="440" y="270" as="targetPoint" />
          </mxGeometry>
        </mxCell>
        <mxCell id="JZi6fWA_zqeTddhJh_jY-33" value="" style="endArrow=classic;html=1;rounded=0;fillColor=#dae8fc;strokeColor=#6c8ebf;" edge="1" parent="1" source="JZi6fWA_zqeTddhJh_jY-1" target="JZi6fWA_zqeTddhJh_jY-31">
          <mxGeometry width="50" height="50" relative="1" as="geometry">
            <mxPoint x="310" y="230" as="sourcePoint" />
            <mxPoint x="602" y="281" as="targetPoint" />
          </mxGeometry>
        </mxCell>
        <mxCell id="JZi6fWA_zqeTddhJh_jY-34" value="use case" style="shape=umlFrame;whiteSpace=wrap;html=1;pointerEvents=0;" vertex="1" parent="1">
          <mxGeometry y="100" width="790" height="460" as="geometry" />
        </mxCell>
      </root>
    </mxGraphModel>
  </diagram>
</mxfile>
